v 201.867874 213.812943 0.175610
v 202.492264 213.812943 0.175610
v 201.867874 198.690994 0.175610
v 202.492264 213.812943 0.800000
v 202.492264 198.690994 0.175610
v 201.867874 198.690994 0.800000
v 201.867874 213.812943 0.800000
v 202.492264 198.690994 0.800000
v 203.116669 213.812943 0.175610
v 203.741058 213.812943 0.175610
v 203.116669 198.690994 0.175610
v 203.741058 213.812943 0.800000
v 203.741058 198.690994 0.175610
v 203.116669 198.690994 0.800000
v 203.116669 213.812943 0.800000
v 203.741058 198.690994 0.800000
v 204.365448 213.812943 0.175610
v 204.989838 213.812943 0.175610
v 204.365448 198.690994 0.175610
v 204.989838 213.812943 0.800000
v 204.989838 198.690994 0.175610
v 204.365448 198.690994 0.800000
v 204.365448 213.812943 0.800000
v 204.989838 198.690994 0.800000
v 203.323029 215.533875 1.463415
v 203.286469 215.533875 1.463415
v 203.323029 215.533875 1.365854
v 202.087387 216.934891 1.463415
v 203.286469 215.533875 1.365854
v 203.323029 215.070053 1.365854
v 203.323029 215.070053 1.463415
v 203.266312 215.431473 1.365854
v 203.266312 215.070053 1.365854
v 203.275940 215.516785 1.365854
v 203.275940 215.516785 1.463415
v 203.264191 215.500656 1.365854
v 203.264191 215.500656 1.463415
v 203.250626 215.485977 1.365854
v 203.250626 215.485977 1.463415
v 203.253662 215.420639 1.365854
v 203.236069 215.472122 1.365854
v 203.266312 215.431473 1.463415
v 203.253662 215.420639 1.463415
v 203.266312 215.070053 1.463415
v 202.087387 213.812943 1.463415
v 204.770325 213.812943 1.463415
v 202.928436 215.064789 1.463415
v 202.957672 215.071777 1.463415
v 202.897644 215.061859 1.463415
v 202.897644 215.061859 1.365854
v 202.869995 215.064346 1.463415
v 202.869995 215.064346 1.365854
v 202.843613 215.070328 1.463415
v 202.843613 215.070328 1.365854
v 202.819458 215.082352 1.463415
v 202.819458 215.082352 1.365854
v 202.796646 215.098099 1.463415
v 202.796646 215.098099 1.365854
v 202.778931 215.118484 1.463415
v 202.778931 215.118484 1.365854
v 202.764664 215.140579 1.463415
v 202.764664 215.140579 1.365854
v 202.756073 215.165466 1.463415
v 202.756073 215.165466 1.365854
v 202.750809 215.191986 1.463415
v 202.750809 215.191986 1.365854
v 202.756470 215.414139 1.463415
v 202.807526 215.199570 1.463415
v 202.763016 215.439133 1.463415
v 201.428864 216.934891 0.731707
v 201.428864 213.812943 0.731707
v 204.770325 216.934891 1.463415
v 205.428864 216.934891 0.731707
v 203.660507 215.531998 1.463415
v 203.449692 215.232651 1.463415
v 203.706818 215.531998 1.463415
v 203.706818 215.531998 1.365854
v 204.019409 215.531998 1.463415
v 203.808609 215.232651 1.463415
v 204.065720 215.531998 1.463415
v 204.065720 215.531998 1.365854
v 204.128113 215.232651 1.463415
v 204.065720 215.232651 1.463415
v 204.128113 215.180664 1.463415
v 205.428864 213.812943 0.731707
v 205.428864 213.812943 0.000000
v 201.428864 213.812943 0.000000
v 205.428864 216.934891 0.000000
v 201.428864 216.934891 0.000000
v 204.128113 215.180664 1.365854
v 204.065720 215.070053 1.463415
v 204.065720 215.180664 1.463415
v 204.009003 215.070053 1.463415
v 204.009003 215.070053 1.365854
v 203.706818 215.070053 1.463415
v 203.650101 215.070053 1.463415
v 203.808609 215.180664 1.463415
v 204.009003 215.180664 1.463415
v 203.769211 215.180664 1.463415
v 203.706818 215.180664 1.463415
v 203.769211 215.232651 1.463415
v 203.769211 215.180664 1.365854
v 203.769211 215.232651 1.365854
v 203.706818 215.180664 1.365854
v 203.706818 215.232651 1.365854
v 203.650101 215.232651 1.365854
v 203.650101 215.180664 1.365854
v 203.650101 215.440933 1.365854
v 203.650101 215.232651 1.463415
v 203.650101 215.440933 1.463415
v 203.505478 215.232651 1.463415
v 203.505478 215.232651 1.365854
v 203.449692 215.180664 1.365854
v 203.449692 215.232651 1.365854
v 203.650101 215.180664 1.463415
v 203.449692 215.180664 1.463415
v 203.650101 215.070053 1.365854
v 203.706818 215.070053 1.365854
v 203.660507 215.531998 1.365854
v 203.706818 215.232651 1.463415
v 203.808609 215.232651 1.365854
v 203.808609 215.180664 1.365854
v 204.019409 215.531998 1.365854
v 204.009003 215.440933 1.365854
v 203.864365 215.232651 1.365854
v 204.065720 215.232651 1.365854
v 204.009003 215.232651 1.365854
v 204.128113 215.232651 1.365854
v 204.065720 215.180664 1.365854
v 204.009003 215.180664 1.365854
v 204.065720 215.070053 1.365854
v 203.864365 215.232651 1.463415
v 204.009003 215.232651 1.463415
v 204.009003 215.440933 1.463415
v 202.763016 215.439133 1.365854
v 202.772324 215.462585 1.463415
v 202.772324 215.462585 1.365854
v 202.786499 215.483398 1.463415
v 202.786499 215.483398 1.365854
v 202.803741 215.502533 1.463415
v 202.803741 215.502533 1.365854
v 202.824646 215.516190 1.463415
v 202.824646 215.516190 1.365854
v 202.846664 215.526596 1.463415
v 202.846664 215.526596 1.365854
v 202.870529 215.531754 1.463415
v 202.870529 215.531754 1.365854
v 202.895447 215.533875 1.463415
v 202.895447 215.533875 1.365854
v 202.913513 215.532684 1.463415
v 202.913513 215.532684 1.365854
v 202.931244 215.529938 1.463415
v 202.931244 215.529938 1.365854
v 202.948334 215.524597 1.463415
v 202.948334 215.524597 1.365854
v 202.965073 215.517654 1.463415
v 202.979416 215.508957 1.463415
v 202.965073 215.517654 1.365854
v 202.979416 215.508957 1.365854
v 202.951202 215.466766 1.365854
v 202.960251 215.455399 1.365854
v 202.939041 215.475708 1.365854
v 202.951202 215.466766 1.463415
v 202.939041 215.475708 1.463415
v 202.960251 215.455399 1.463415
v 202.970779 215.429550 1.463415
v 202.967224 215.443176 1.463415
v 202.967224 215.443176 1.365854
v 202.992599 215.498993 1.365854
v 203.003784 215.486847 1.365854
v 202.992599 215.498993 1.463415
v 203.003784 215.486847 1.463415
v 203.013748 215.473373 1.365854
v 203.013748 215.473373 1.463415
v 202.970779 215.429550 1.365854
v 203.020813 215.459290 1.365854
v 202.972321 215.415085 1.463415
v 202.972321 215.415085 1.365854
v 202.970398 215.397797 1.463415
v 203.026321 215.444763 1.365854
v 203.029251 215.429520 1.365854
v 203.020813 215.459290 1.463415
v 203.026321 215.444763 1.463415
v 203.152878 215.417923 1.463415
v 203.175018 215.429413 1.463415
v 203.029251 215.429520 1.463415
v 203.030609 215.413834 1.463415
v 203.030609 215.413834 1.365854
v 203.029388 215.399384 1.463415
v 203.029388 215.399384 1.365854
v 203.152878 215.363098 1.463415
v 203.026642 215.385376 1.463415
v 203.152878 215.417923 1.365854
v 203.152878 215.363098 1.365854
v 203.175018 215.429413 1.365854
v 203.168259 215.369507 1.365854
v 203.183365 215.376434 1.365854
v 203.168259 215.369507 1.463415
v 203.183365 215.376434 1.463415
v 203.198090 215.384201 1.463415
v 203.198090 215.384201 1.365854
v 203.212585 215.392410 1.463415
v 203.196442 215.441986 1.365854
v 203.212585 215.392410 1.365854
v 203.196442 215.441986 1.463415
v 203.216629 215.456482 1.365854
v 203.216629 215.456482 1.463415
v 203.236069 215.472122 1.463415
v 203.226776 215.401138 1.365854
v 203.240570 215.410416 1.365854
v 203.226776 215.401138 1.463415
v 203.240570 215.410416 1.463415
v 203.053299 215.206497 1.463415
v 203.049835 215.177597 1.463415
v 203.051865 215.226440 1.463415
v 203.048187 215.245697 1.463415
v 203.053299 215.206497 1.365854
v 203.051865 215.226440 1.365854
v 203.049835 215.177597 1.365854
v 202.993118 215.205231 1.365854
v 202.991074 215.186096 1.365854
v 202.991302 215.223175 1.365854
v 203.048187 215.245697 1.365854
v 202.993118 215.205231 1.463415
v 202.991302 215.223175 1.463415
v 202.991074 215.186096 1.463415
v 202.953201 215.280624 1.463415
v 202.986404 215.168030 1.463415
v 202.986404 215.168030 1.365854
v 202.977325 215.151733 1.463415
v 203.027771 215.126328 1.365854
v 203.009186 215.103928 1.365854
v 203.042236 215.150497 1.365854
v 203.042236 215.150497 1.463415
v 203.027771 215.126328 1.463415
v 203.009186 215.103928 1.463415
v 202.984268 215.085709 1.365854
v 202.984268 215.085709 1.463415
v 202.977325 215.151733 1.365854
v 202.965546 215.136536 1.365854
v 202.965546 215.136536 1.463415
v 202.950638 215.124771 1.463415
v 202.950638 215.124771 1.365854
v 202.934647 215.115646 1.463415
v 202.957672 215.071777 1.365854
v 202.934647 215.115646 1.365854
v 202.928436 215.064789 1.365854
v 202.916840 215.110916 1.365854
v 202.916840 215.110916 1.463415
v 202.897964 215.108810 1.463415
v 202.892548 215.294342 1.463415
v 202.897964 215.108810 1.365854
v 202.882248 215.110367 1.463415
v 202.882248 215.110367 1.365854
v 202.867294 215.113937 1.463415
v 202.872543 215.291138 1.463415
v 202.867294 215.113937 1.365854
v 202.853638 215.120956 1.463415
v 202.853638 215.120956 1.365854
v 202.840775 215.130081 1.365854
v 202.840775 215.130081 1.463415
v 202.828598 215.145523 1.463415
v 202.828598 215.145523 1.365854
v 202.818741 215.162109 1.463415
v 202.818741 215.162109 1.365854
v 202.812225 215.180374 1.463415
v 202.812225 215.180374 1.365854
v 202.807526 215.199570 1.365854
v 202.862671 215.288742 1.463415
v 202.813202 215.404068 1.463415
v 202.868973 215.338516 1.463415
v 202.868973 215.338516 1.365854
v 202.816772 215.421310 1.463415
v 202.813202 215.404068 1.365854
v 202.822159 215.437714 1.463415
v 202.830795 215.452591 1.463415
v 202.816772 215.421310 1.365854
v 202.822159 215.437714 1.365854
v 202.756470 215.414139 1.365854
v 202.830795 215.452591 1.365854
v 202.841553 215.466446 1.463415
v 202.895386 215.339294 1.463415
v 202.841553 215.466446 1.365854
v 202.853897 215.475433 1.463415
v 202.853897 215.475433 1.365854
v 202.867035 215.482300 1.463415
v 202.867035 215.482300 1.365854
v 202.881485 215.485764 1.463415
v 202.881485 215.485764 1.365854
v 202.896698 215.487244 1.463415
v 202.912140 215.342499 1.463415
v 202.896698 215.487244 1.365854
v 202.911758 215.485870 1.463415
v 202.911758 215.485870 1.365854
v 202.926071 215.482498 1.463415
v 202.927994 215.348724 1.463415
v 202.926071 215.482498 1.365854
v 202.943329 215.356796 1.463415
v 202.943329 215.356796 1.365854
v 202.956024 215.368591 1.463415
v 202.956024 215.368591 1.365854
v 202.968552 215.389603 1.463415
v 202.961395 215.374985 1.463415
v 202.970398 215.397797 1.365854
v 202.968552 215.389603 1.365854
v 202.965652 215.381958 1.463415
v 203.004608 215.347198 1.365854
v 202.993576 215.336395 1.365854
v 203.014542 215.359314 1.365854
v 203.014542 215.359314 1.463415
v 203.021347 215.372116 1.365854
v 203.021347 215.372116 1.463415
v 203.026642 215.385376 1.365854
v 203.030609 215.281021 1.463415
v 203.040634 215.263733 1.463415
v 203.017181 215.294785 1.463415
v 203.004608 215.347198 1.463415
v 203.030609 215.281021 1.365854
v 203.017181 215.294785 1.365854
v 203.040634 215.263733 1.365854
v 202.987030 215.240128 1.365854
v 202.987030 215.240128 1.463415
v 202.978607 215.255417 1.365854
v 202.978607 215.255417 1.463415
v 202.967590 215.269669 1.463415
v 202.967590 215.269669 1.365854
v 202.985306 215.314331 1.365854
v 203.002350 215.306335 1.365854
v 202.966965 215.320251 1.365854
v 202.966965 215.320251 1.463415
v 202.953201 215.280624 1.365854
v 202.937790 215.289017 1.365854
v 202.937790 215.289017 1.463415
v 202.920715 215.293243 1.365854
v 202.920715 215.293243 1.463415
v 202.902695 215.295044 1.365854
v 202.902695 215.295044 1.463415
v 202.912140 215.342499 1.365854
v 202.927994 215.348724 1.365854
v 202.895386 215.339294 1.365854
v 202.892548 215.294342 1.365854
v 202.878113 215.337891 1.365854
v 202.882492 215.293121 1.365854
v 202.882492 215.293121 1.463415
v 202.875824 215.337967 1.365854
v 202.875824 215.337967 1.463415
v 202.872543 215.291138 1.365854
v 202.873535 215.338074 1.365854
v 202.862671 215.288742 1.365854
v 202.871246 215.338272 1.365854
v 202.871246 215.338272 1.463415
v 202.873535 215.338074 1.463415
v 202.878113 215.337891 1.463415
v 202.980774 215.327713 1.365854
v 202.980774 215.327713 1.463415
v 202.961395 215.374985 1.365854
v 202.965652 215.381958 1.365854
v 202.993576 215.336395 1.463415
v 203.002350 215.306335 1.463415
v 202.985306 215.314331 1.463415
f 1 2 3
f 2 1 4
f 3 2 5
f 6 1 3
f 7 1 6
f 3 8 6
f 5 8 3
f 8 7 6
f 4 7 8
f 4 1 7
f 5 4 8
f 2 4 5
f 9 10 11
f 10 9 12
f 11 10 13
f 14 9 11
f 15 9 14
f 11 16 14
f 13 16 11
f 16 15 14
f 12 15 16
f 12 9 15
f 13 12 16
f 10 12 13
f 17 18 19
f 18 17 20
f 19 18 21
f 22 17 19
f 23 17 22
f 19 24 22
f 21 24 19
f 24 23 22
f 20 23 24
f 20 17 23
f 21 20 24
f 18 20 21
f 25 26 27
f 25 28 26
f 27 26 29
f 30 25 27
f 31 25 30
f 32 30 27
f 33 30 32
f 32 27 29
f 29 34 32
f 29 35 34
f 32 34 36
f 34 37 36
f 32 36 38
f 36 39 38
f 32 38 40
f 40 38 41
f 40 42 32
f 40 43 42
f 42 44 32
f 42 43 44
f 32 44 33
f 44 31 33
f 45 31 44
f 33 31 30
f 46 31 45
f 45 44 47
f 47 44 48
f 47 49 45
f 49 47 50
f 45 49 51
f 52 51 49
f 45 51 53
f 54 53 51
f 53 55 45
f 56 55 53
f 45 55 57
f 57 55 58
f 45 57 59
f 60 59 57
f 59 61 45
f 62 61 59
f 45 61 63
f 64 63 61
f 45 63 65
f 65 63 66
f 45 65 67
f 67 65 68
f 45 67 28
f 28 67 69
f 70 45 28
f 71 45 70
f 72 70 28
f 73 70 72
f 28 25 72
f 72 25 74
f 74 25 75
f 72 74 76
f 76 74 77
f 76 78 72
f 76 79 78
f 72 78 80
f 80 78 81
f 72 80 82
f 82 80 83
f 72 82 46
f 46 82 84
f 85 72 46
f 73 72 85
f 45 85 46
f 71 85 45
f 71 86 85
f 87 86 71
f 86 88 85
f 86 87 88
f 85 88 73
f 88 89 73
f 88 87 89
f 73 89 70
f 89 87 70
f 70 87 71
f 84 82 90
f 46 84 91
f 91 84 92
f 91 93 46
f 93 91 94
f 95 46 93
f 96 46 95
f 95 93 97
f 97 93 98
f 99 95 97
f 100 95 99
f 99 97 101
f 101 97 79
f 99 101 102
f 102 101 103
f 104 99 102
f 100 99 104
f 104 102 105
f 105 102 103
f 106 104 105
f 107 104 106
f 106 105 108
f 108 105 77
f 108 109 106
f 110 109 108
f 109 111 106
f 110 111 109
f 106 111 112
f 111 110 112
f 106 112 107
f 112 113 107
f 112 114 113
f 113 115 107
f 116 115 113
f 115 96 107
f 116 96 115
f 107 96 117
f 96 95 117
f 117 118 107
f 117 95 118
f 107 118 104
f 118 100 104
f 95 100 118
f 116 31 96
f 75 31 116
f 96 31 46
f 75 25 31
f 75 116 114
f 114 116 113
f 119 75 114
f 74 75 119
f 119 114 108
f 108 114 112
f 108 77 119
f 77 74 119
f 112 110 108
f 105 76 77
f 120 76 105
f 76 120 101
f 103 120 105
f 101 120 103
f 101 79 76
f 79 97 121
f 121 97 122
f 123 79 121
f 78 79 123
f 123 121 124
f 124 121 125
f 124 81 123
f 124 126 81
f 81 78 123
f 127 126 124
f 126 80 81
f 83 80 126
f 128 83 126
f 82 83 128
f 126 90 128
f 129 90 126
f 90 82 128
f 129 84 90
f 127 129 126
f 130 129 127
f 130 131 129
f 127 125 130
f 127 132 125
f 125 122 130
f 125 121 122
f 122 98 130
f 97 98 122
f 98 93 130
f 130 93 94
f 94 131 130
f 94 91 131
f 91 92 131
f 131 92 129
f 92 84 129
f 133 132 127
f 132 134 125
f 134 132 133
f 125 134 124
f 134 133 124
f 124 133 127
f 135 69 67
f 28 69 136
f 137 136 69
f 136 138 28
f 139 138 136
f 28 138 140
f 140 138 141
f 28 140 142
f 143 142 140
f 142 144 28
f 145 144 142
f 28 144 146
f 147 146 144
f 28 146 148
f 148 146 149
f 148 150 28
f 151 150 148
f 28 150 152
f 153 152 150
f 26 28 152
f 26 152 154
f 155 154 152
f 156 26 154
f 157 26 156
f 156 154 158
f 158 154 155
f 159 156 158
f 159 157 156
f 160 159 158
f 161 159 160
f 160 158 162
f 162 158 155
f 162 163 160
f 162 164 163
f 163 165 160
f 166 165 163
f 160 165 161
f 161 165 167
f 167 165 166
f 161 167 168
f 168 167 166
f 168 169 161
f 168 170 169
f 161 169 159
f 169 157 159
f 169 171 157
f 170 171 169
f 171 26 157
f 172 26 171
f 35 26 172
f 170 172 171
f 173 172 170
f 174 172 173
f 168 173 170
f 175 173 168
f 175 176 173
f 168 166 175
f 175 166 177
f 164 177 166
f 175 177 178
f 177 179 178
f 178 180 175
f 178 181 180
f 175 180 176
f 180 182 176
f 180 183 182
f 176 182 174
f 184 174 182
f 176 174 173
f 185 174 184
f 184 182 183
f 183 186 184
f 181 186 183
f 184 186 187
f 187 186 188
f 184 187 189
f 190 189 187
f 184 189 191
f 191 189 192
f 184 191 193
f 193 191 194
f 195 184 193
f 195 185 184
f 196 195 193
f 197 195 196
f 196 193 194
f 194 198 196
f 191 198 194
f 196 198 199
f 199 198 44
f 196 199 197
f 197 199 200
f 44 200 199
f 197 200 201
f 201 200 202
f 201 203 197
f 204 203 201
f 197 203 195
f 203 185 195
f 203 205 185
f 206 205 203
f 185 205 174
f 174 205 172
f 172 205 207
f 206 207 205
f 172 207 208
f 208 207 41
f 208 39 172
f 38 39 208
f 172 39 37
f 36 37 39
f 172 37 35
f 34 35 37
f 38 208 41
f 41 207 206
f 209 41 206
f 210 41 209
f 209 206 204
f 204 206 203
f 204 211 209
f 202 211 204
f 209 211 212
f 44 212 211
f 209 212 210
f 210 212 43
f 44 43 212
f 210 43 40
f 40 41 210
f 211 202 44
f 44 202 200
f 201 202 204
f 44 198 191
f 213 44 191
f 214 44 213
f 213 191 215
f 215 191 216
f 213 215 217
f 217 215 218
f 219 213 217
f 219 214 213
f 220 219 217
f 221 219 220
f 220 217 218
f 220 218 222
f 222 218 223
f 222 224 220
f 222 225 224
f 224 226 220
f 227 226 224
f 220 226 221
f 221 226 228
f 227 228 226
f 221 228 229
f 229 228 230
f 229 231 221
f 229 232 231
f 221 231 233
f 231 234 233
f 221 233 219
f 233 214 219
f 233 234 214
f 234 44 214
f 235 44 234
f 236 44 235
f 231 235 234
f 232 235 231
f 236 235 232
f 237 236 232
f 237 238 236
f 239 237 232
f 240 237 239
f 239 232 229
f 229 230 239
f 239 230 241
f 227 241 230
f 239 241 240
f 241 242 240
f 227 242 241
f 240 242 243
f 243 242 244
f 243 237 240
f 243 245 237
f 246 245 243
f 245 238 237
f 245 48 238
f 247 48 245
f 48 44 238
f 238 44 236
f 247 47 48
f 246 247 245
f 248 247 246
f 248 50 247
f 246 249 248
f 246 244 249
f 248 249 250
f 251 250 249
f 248 250 252
f 250 253 252
f 252 50 248
f 254 50 252
f 254 52 50
f 252 253 254
f 254 253 255
f 255 253 256
f 254 255 257
f 257 255 258
f 257 52 254
f 257 54 52
f 259 54 257
f 54 51 52
f 260 54 259
f 257 258 259
f 259 258 261
f 256 261 258
f 259 261 260
f 261 262 260
f 262 261 256
f 260 262 263
f 263 262 264
f 263 56 260
f 263 58 56
f 260 56 54
f 56 53 54
f 265 58 263
f 58 55 56
f 265 60 58
f 263 264 265
f 265 264 266
f 256 266 264
f 265 266 267
f 267 266 68
f 267 60 265
f 267 62 60
f 267 64 62
f 62 59 60
f 268 64 267
f 64 61 62
f 66 64 268
f 267 68 268
f 68 65 268
f 268 65 66
f 66 63 64
f 68 266 269
f 269 266 256
f 270 68 269
f 67 68 270
f 270 269 271
f 271 269 272
f 273 270 271
f 270 273 274
f 271 275 273
f 271 276 275
f 277 273 275
f 274 273 277
f 277 275 278
f 278 275 276
f 278 139 277
f 278 141 139
f 277 139 137
f 139 136 137
f 277 137 135
f 137 69 135
f 135 274 277
f 279 274 135
f 279 270 274
f 135 67 279
f 67 270 279
f 280 141 278
f 141 138 139
f 280 143 141
f 278 276 280
f 280 276 281
f 276 282 281
f 280 281 283
f 281 284 283
f 283 143 280
f 285 143 283
f 285 145 143
f 283 284 285
f 285 284 286
f 284 282 286
f 285 286 287
f 287 286 288
f 287 145 285
f 287 147 145
f 289 147 287
f 147 144 145
f 289 149 147
f 287 288 289
f 289 288 290
f 288 291 290
f 289 290 292
f 290 293 292
f 292 149 289
f 292 151 149
f 294 151 292
f 151 148 149
f 294 153 151
f 292 293 294
f 294 293 295
f 293 296 295
f 294 295 297
f 297 295 164
f 297 153 294
f 297 155 153
f 162 155 297
f 155 152 153
f 297 164 162
f 295 296 164
f 164 296 298
f 298 296 299
f 164 298 300
f 301 300 298
f 300 179 164
f 300 302 179
f 164 179 177
f 303 302 300
f 304 179 302
f 178 179 304
f 304 302 305
f 305 302 306
f 305 307 304
f 305 308 307
f 304 307 309
f 307 310 309
f 304 309 311
f 309 312 311
f 304 311 178
f 178 311 313
f 311 192 313
f 178 313 190
f 313 189 190
f 190 188 178
f 190 187 188
f 178 188 181
f 188 186 181
f 313 192 189
f 311 312 192
f 191 192 312
f 314 191 312
f 315 191 314
f 314 312 310
f 310 312 309
f 314 310 316
f 316 310 317
f 314 316 318
f 318 316 319
f 320 314 318
f 320 315 314
f 320 318 222
f 222 318 321
f 222 223 320
f 223 315 320
f 223 216 315
f 218 216 223
f 216 191 315
f 218 215 216
f 321 318 319
f 321 225 222
f 321 322 225
f 323 322 321
f 324 225 322
f 325 225 324
f 323 324 322
f 326 324 323
f 325 324 326
f 323 327 326
f 323 328 327
f 326 327 329
f 327 330 329
f 326 329 331
f 331 329 332
f 331 325 326
f 331 227 325
f 332 227 331
f 227 225 325
f 224 225 227
f 332 333 227
f 334 333 332
f 333 242 227
f 335 242 333
f 244 242 335
f 334 335 333
f 336 335 334
f 337 335 336
f 334 338 336
f 334 339 338
f 336 338 340
f 338 282 340
f 336 340 341
f 341 340 342
f 341 337 336
f 341 251 337
f 343 251 341
f 249 337 251
f 249 335 337
f 244 335 249
f 343 344 251
f 341 342 343
f 343 342 345
f 342 346 345
f 343 345 347
f 347 345 348
f 347 344 343
f 347 256 344
f 349 256 347
f 256 253 344
f 344 253 251
f 251 253 250
f 269 256 349
f 347 272 349
f 350 272 347
f 272 269 349
f 350 271 272
f 347 348 350
f 348 351 350
f 348 352 351
f 350 351 271
f 351 276 271
f 351 352 276
f 276 352 346
f 345 346 352
f 276 346 353
f 353 346 342
f 353 282 276
f 340 282 353
f 340 353 342
f 345 352 348
f 338 291 282
f 339 291 338
f 288 282 291
f 286 282 288
f 339 296 291
f 299 296 339
f 293 291 296
f 290 291 293
f 332 299 339
f 332 329 299
f 332 339 334
f 299 329 301
f 301 329 354
f 301 298 299
f 329 355 354
f 301 354 356
f 356 354 357
f 356 300 301
f 356 303 300
f 357 303 356
f 357 306 303
f 305 306 357
f 303 306 302
f 357 308 305
f 357 354 308
f 354 358 308
f 354 355 358
f 308 358 317
f 359 317 358
f 308 317 307
f 307 317 310
f 316 317 359
f 359 358 360
f 360 358 355
f 328 359 360
f 319 359 328
f 328 360 327
f 327 360 330
f 360 355 330
f 330 355 329
f 319 316 359
f 323 319 328
f 321 319 323
f 153 150 151
f 149 146 147
f 281 282 284
f 145 142 143
f 143 140 141
f 256 264 262
f 60 57 58
f 256 258 255
f 52 49 50
f 243 244 246
f 50 47 247
f 230 228 227
f 181 183 180
f 166 163 164
f 26 35 29
