<?xml version="1.0" encoding="UTF-8"?>
<svg xmlns="http://www.w3.org/2000/svg" 
     width="52.0000in" 
     height="8.0000in" 
     viewBox="0 0 52.0000 8.0000">
  <title>CLEAT_WALL_HOLES_CSINK</title>
  <g id="CLEAT_WALL_HOLES_CSINK" data-name="CLEAT_WALL_HOLES_CSINK">
  <circle cx="26.0000" cy="3.2500" r="0.1875" fill="none" stroke="#8fea00" stroke-width="0.001"/>
  <circle cx="26.0000" cy="4.7500" r="0.1875" fill="none" stroke="#8fea00" stroke-width="0.001"/>
  <circle cx="28.0000" cy="3.2500" r="0.1875" fill="none" stroke="#8fea00" stroke-width="0.001"/>
  <circle cx="28.0000" cy="4.7500" r="0.1875" fill="none" stroke="#8fea00" stroke-width="0.001"/>
  <circle cx="24.0000" cy="3.2500" r="0.1875" fill="none" stroke="#8fea00" stroke-width="0.001"/>
  <circle cx="24.0000" cy="4.7500" r="0.1875" fill="none" stroke="#8fea00" stroke-width="0.001"/>
  <circle cx="30.0000" cy="3.2500" r="0.1875" fill="none" stroke="#8fea00" stroke-width="0.001"/>
  <circle cx="30.0000" cy="4.7500" r="0.1875" fill="none" stroke="#8fea00" stroke-width="0.001"/>
  <circle cx="22.0000" cy="3.2500" r="0.1875" fill="none" stroke="#8fea00" stroke-width="0.001"/>
  <circle cx="22.0000" cy="4.7500" r="0.1875" fill="none" stroke="#8fea00" stroke-width="0.001"/>
  <circle cx="32.0000" cy="3.2500" r="0.1875" fill="none" stroke="#8fea00" stroke-width="0.001"/>
  <circle cx="32.0000" cy="4.7500" r="0.1875" fill="none" stroke="#8fea00" stroke-width="0.001"/>
  <circle cx="20.0000" cy="3.2500" r="0.1875" fill="none" stroke="#8fea00" stroke-width="0.001"/>
  <circle cx="20.0000" cy="4.7500" r="0.1875" fill="none" stroke="#8fea00" stroke-width="0.001"/>
  <circle cx="34.0000" cy="3.2500" r="0.1875" fill="none" stroke="#8fea00" stroke-width="0.001"/>
  <circle cx="34.0000" cy="4.7500" r="0.1875" fill="none" stroke="#8fea00" stroke-width="0.001"/>
  <circle cx="18.0000" cy="3.2500" r="0.1875" fill="none" stroke="#8fea00" stroke-width="0.001"/>
  <circle cx="18.0000" cy="4.7500" r="0.1875" fill="none" stroke="#8fea00" stroke-width="0.001"/>
  <circle cx="36.0000" cy="3.2500" r="0.1875" fill="none" stroke="#8fea00" stroke-width="0.001"/>
  <circle cx="36.0000" cy="4.7500" r="0.1875" fill="none" stroke="#8fea00" stroke-width="0.001"/>
  <circle cx="16.0000" cy="3.2500" r="0.1875" fill="none" stroke="#8fea00" stroke-width="0.001"/>
  <circle cx="16.0000" cy="4.7500" r="0.1875" fill="none" stroke="#8fea00" stroke-width="0.001"/>
  <circle cx="38.0000" cy="3.2500" r="0.1875" fill="none" stroke="#8fea00" stroke-width="0.001"/>
  <circle cx="38.0000" cy="4.7500" r="0.1875" fill="none" stroke="#8fea00" stroke-width="0.001"/>
  <circle cx="14.0000" cy="3.2500" r="0.1875" fill="none" stroke="#8fea00" stroke-width="0.001"/>
  <circle cx="14.0000" cy="4.7500" r="0.1875" fill="none" stroke="#8fea00" stroke-width="0.001"/>
  <circle cx="40.0000" cy="3.2500" r="0.1875" fill="none" stroke="#8fea00" stroke-width="0.001"/>
  <circle cx="40.0000" cy="4.7500" r="0.1875" fill="none" stroke="#8fea00" stroke-width="0.001"/>
  <circle cx="12.0000" cy="3.2500" r="0.1875" fill="none" stroke="#8fea00" stroke-width="0.001"/>
  <circle cx="12.0000" cy="4.7500" r="0.1875" fill="none" stroke="#8fea00" stroke-width="0.001"/>
  <circle cx="42.0000" cy="3.2500" r="0.1875" fill="none" stroke="#8fea00" stroke-width="0.001"/>
  <circle cx="42.0000" cy="4.7500" r="0.1875" fill="none" stroke="#8fea00" stroke-width="0.001"/>
  <circle cx="10.0000" cy="3.2500" r="0.1875" fill="none" stroke="#8fea00" stroke-width="0.001"/>
  <circle cx="10.0000" cy="4.7500" r="0.1875" fill="none" stroke="#8fea00" stroke-width="0.001"/>
  <circle cx="44.0000" cy="3.2500" r="0.1875" fill="none" stroke="#8fea00" stroke-width="0.001"/>
  <circle cx="44.0000" cy="4.7500" r="0.1875" fill="none" stroke="#8fea00" stroke-width="0.001"/>
  <circle cx="8.0000" cy="3.2500" r="0.1875" fill="none" stroke="#8fea00" stroke-width="0.001"/>
  <circle cx="8.0000" cy="4.7500" r="0.1875" fill="none" stroke="#8fea00" stroke-width="0.001"/>
  <circle cx="46.0000" cy="3.2500" r="0.1875" fill="none" stroke="#8fea00" stroke-width="0.001"/>
  <circle cx="46.0000" cy="4.7500" r="0.1875" fill="none" stroke="#8fea00" stroke-width="0.001"/>
  <circle cx="6.0000" cy="3.2500" r="0.1875" fill="none" stroke="#8fea00" stroke-width="0.001"/>
  <circle cx="6.0000" cy="4.7500" r="0.1875" fill="none" stroke="#8fea00" stroke-width="0.001"/>
  <circle cx="48.0000" cy="3.2500" r="0.1875" fill="none" stroke="#8fea00" stroke-width="0.001"/>
  <circle cx="48.0000" cy="4.7500" r="0.1875" fill="none" stroke="#8fea00" stroke-width="0.001"/>
  <circle cx="4.0000" cy="3.2500" r="0.1875" fill="none" stroke="#8fea00" stroke-width="0.001"/>
  <circle cx="4.0000" cy="4.7500" r="0.1875" fill="none" stroke="#8fea00" stroke-width="0.001"/>
  </g>
</svg>